<mxfile host="app.diagrams.net" modified="2023-08-29T18:44:54.571Z" agent="Mozilla/5.0 (Windows NT 10.0; Win64; x64) AppleWebKit/537.36 (KHTML, like Gecko) Chrome/116.0.0.0 Safari/537.36" version="21.6.2" etag="D5_tFOzK8YFtmiUcx6X0" type="github">
  <diagram name="Page-1" id="IPv6i0eh7gnvQ1AbUMQI">
    <mxGraphModel>
      <root>
        <mxCell id="0" />
        <mxCell id="1" parent="0" />
      </root>
    </mxGraphModel>
  </diagram>
</mxfile>
